<svg width="21" height="25" viewBox="0 0 21 25" fill="none" xmlns="http://www.w3.org/2000/svg">
<path d="M2.002 10.6492L1.50506 10.594L2.002 10.6492ZM0.705704 22.3159L1.20265 22.3711L0.705704 22.3159ZM20.2944 22.3159L19.7975 22.3711V22.3711L20.2944 22.3159ZM18.9981 10.6492L19.4951 10.594L18.9981 10.6492ZM1.50506 10.594L0.208762 22.2606L1.20265 22.3711L2.49894 10.7044L1.50506 10.594ZM2.36218 24.6666H18.638V23.6666H2.36218V24.6666ZM20.7914 22.2606L19.4951 10.594L18.5012 10.7044L19.7975 22.3711L20.7914 22.2606ZM17.3417 8.66658H3.65847V9.66658H17.3417V8.66658ZM19.4951 10.594C19.3732 9.49671 18.4457 8.66658 17.3417 8.66658V9.66658C17.9361 9.66658 18.4355 10.1136 18.5012 10.7044L19.4951 10.594ZM18.638 24.6666C19.9293 24.6666 20.934 23.5441 20.7914 22.2606L19.7975 22.3711C19.8743 23.0622 19.3333 23.6666 18.638 23.6666V24.6666ZM0.208762 22.2606C0.0661554 23.5441 1.07082 24.6666 2.36218 24.6666V23.6666C1.66683 23.6666 1.12586 23.0622 1.20265 22.3711L0.208762 22.2606ZM2.49894 10.7044C2.56459 10.1136 3.064 9.66658 3.65847 9.66658V8.66658C2.55445 8.66658 1.62698 9.49671 1.50506 10.594L2.49894 10.7044ZM6.00007 6.66658V5.83325H5.00007V6.66658H6.00007ZM15.0001 5.83325V6.66658H16.0001V5.83325H15.0001ZM10.5001 1.33325C12.9854 1.33325 15.0001 3.34797 15.0001 5.83325H16.0001C16.0001 2.79569 13.5376 0.333252 10.5001 0.333252V1.33325ZM6.00007 5.83325C6.00007 3.34797 8.01479 1.33325 10.5001 1.33325V0.333252C7.4625 0.333252 5.00007 2.79569 5.00007 5.83325H6.00007Z" fill="#403845"/>
</svg>
