<svg width="25" height="25" viewBox="0 0 25 25" fill="none" xmlns="http://www.w3.org/2000/svg">
<path d="M12.5 0.833252L12.7236 0.386039C12.5828 0.315656 12.4172 0.315656 12.2764 0.386039L12.5 0.833252ZM0 24.6666H25V23.6666H0V24.6666ZM12.2764 0.386039L2.27639 5.38605L2.72361 6.28048L12.7236 1.28047L12.2764 0.386039ZM0 9.6666H25V8.6666H0V9.6666ZM22.7236 5.38605L12.7236 0.386039L12.2764 1.28047L22.2764 6.28048L22.7236 5.38605ZM8.66667 13.3333V19.9999H9.66667V13.3333H8.66667ZM15.3333 13.3333V19.9999H16.3333V13.3333H15.3333ZM2 9.1666V24.1666H3V9.1666H2ZM22 9.1666V24.1666H23V9.1666H22Z" fill="#1F2421"/>
</svg>
