<svg width="13" height="15" viewBox="0 0 13 15" fill="none" xmlns="http://www.w3.org/2000/svg">
<path d="M2.62444 9.95236C3.90666 11.6654 5.45018 13.0142 7.21189 13.9686C7.88263 14.3238 8.77964 14.7453 9.77902 14.8176C9.84098 14.8206 9.90024 14.8236 9.9622 14.8236C10.6329 14.8236 11.1717 14.5647 11.6108 14.0318C11.6135 14.0288 11.6188 14.0228 11.6215 14.0167C11.7778 13.806 11.9556 13.6163 12.1414 13.4146C12.268 13.2791 12.3973 13.1376 12.5213 12.9931C13.095 12.3248 13.095 11.4758 12.5159 10.8285L10.8969 9.01906C10.6222 8.69993 10.2935 8.53134 9.94873 8.53134C9.60393 8.53134 9.2726 8.69993 8.98976 9.01605L8.0254 10.0939C7.9365 10.0367 7.84491 9.98548 7.75871 9.93731C7.65097 9.8771 7.5513 9.8199 7.4624 9.75667C6.58424 9.13347 5.7869 8.32059 5.02457 7.27589C4.63936 6.73097 4.38076 6.27335 4.20028 5.8067C4.45349 5.55079 4.69054 5.28284 4.91951 5.02091C5.00032 4.92758 5.08383 4.83425 5.16734 4.74092C5.45826 4.41577 5.6145 4.03944 5.6145 3.65709C5.6145 3.27474 5.46095 2.8984 5.16734 2.57325L4.3646 1.67608C4.27032 1.57071 4.18143 1.46834 4.08984 1.36297C3.91205 1.15825 3.72618 0.947501 3.54301 0.75783C3.26555 0.453754 2.93961 0.294189 2.59481 0.294189C2.25271 0.294189 1.92407 0.453754 1.63584 0.760841L0.62838 1.88682C0.262031 2.29627 0.0546127 2.79303 0.0115128 3.36807C-0.0396683 4.08761 0.0788564 4.85232 0.385943 5.77659C0.857348 7.20665 1.5685 8.53435 2.62444 9.95236ZM0.668786 3.43129C0.701111 3.03087 0.838492 2.69669 1.09709 2.40767L2.09916 1.2877C2.2554 1.11911 2.4278 1.0318 2.59481 1.0318C2.75913 1.0318 2.92614 1.11911 3.07969 1.29373C3.26017 1.48039 3.42987 1.67608 3.61305 1.88381C3.70463 1.98919 3.79891 2.09456 3.8932 2.20294L4.69593 3.10012C4.86294 3.28678 4.94914 3.47645 4.94914 3.66311C4.94914 3.84977 4.86294 4.03944 4.69593 4.2261C4.61242 4.31943 4.52892 4.41577 4.44541 4.5091C4.19489 4.7921 3.96054 5.06005 3.70194 5.31596C3.69655 5.32198 3.69386 5.32499 3.68847 5.33101C3.46489 5.5809 3.49991 5.81874 3.55378 5.99938C3.55648 6.00841 3.55917 6.01443 3.56187 6.02346C3.76928 6.58043 4.05751 7.11031 4.50737 7.74254C5.31549 8.85649 6.16671 9.72054 7.10414 10.3859C7.21997 10.4702 7.34388 10.5364 7.45971 10.6027C7.56746 10.6629 7.66713 10.7201 7.75602 10.7833C7.7668 10.7893 7.77488 10.7953 7.78565 10.8014C7.87455 10.8525 7.96075 10.8766 8.04695 10.8766C8.26244 10.8766 8.40252 10.7231 8.44831 10.6719L9.45577 9.54593C9.61201 9.37131 9.78172 9.27798 9.94873 9.27798C10.1535 9.27798 10.3205 9.41948 10.4255 9.54593L12.0498 11.3583C12.3731 11.7196 12.3704 12.111 12.0418 12.4934C11.9286 12.6288 11.8101 12.7583 11.6835 12.8938C11.4949 13.0985 11.2983 13.3092 11.1205 13.5471C10.8107 13.9204 10.4417 14.095 9.96489 14.095C9.9191 14.095 9.87061 14.092 9.82482 14.089C8.94127 14.0258 8.11968 13.6404 7.50281 13.3123C5.8273 12.406 4.35652 11.1205 3.13625 9.48872C2.13149 8.13694 1.45536 6.87849 1.0082 5.52971C0.730742 4.70179 0.625686 4.03643 0.668786 3.43129Z" fill="#F3F3C1"/>
</svg>
