<svg width="16" height="16" viewBox="0 0 16 16" fill="none" xmlns="http://www.w3.org/2000/svg">
<rect width="16" height="16" fill="#1F2421"/>
<path fill-rule="evenodd" clip-rule="evenodd" d="M8 7.14539C7.48 7.14539 6.992 7.33962 6.616 7.70477C6.248 8.06215 6.048 8.53607 6.056 9.02553V9.0333C6.056 9.53829 6.256 10.0122 6.624 10.3696C6.992 10.727 7.48 10.9212 8 10.9212C9.072 10.9212 9.936 10.0744 9.944 9.0333C9.944 8.5283 9.744 8.05438 9.376 7.697C9.008 7.33962 8.52 7.14539 8 7.14539M12.488 7.19978C12.088 7.19978 11.768 6.88901 11.768 6.50056C11.768 6.1121 12.088 5.79356 12.488 5.79356C12.888 5.79356 13.216 6.1121 13.216 6.50056C13.216 6.88901 12.888 7.19978 12.488 7.19978M10.216 11.1931C9.648 11.7447 8.864 12.0866 8 12.0866C7.16 12.0866 6.376 11.768 5.776 11.1931C5.184 10.6104 4.856 9.84906 4.856 9.0333C4.848 8.22531 5.176 7.46393 5.768 6.88124C6.368 6.29856 7.16 5.98002 8 5.98002C8.84 5.98002 9.632 6.29856 10.224 6.87347C10.816 7.45616 11.144 8.22531 11.144 9.0333C11.136 9.88013 10.784 10.6415 10.216 11.1931M12.512 3.61043C12.44 3.61043 12.384 3.57159 12.352 3.5172L12.272 3.34628C12.056 2.90344 11.808 2.39068 11.656 2.09545C11.288 1.39623 10.656 1.00777 9.88 1H6.112C5.336 1.00777 4.712 1.39623 4.344 2.09545C4.184 2.40622 3.912 2.96559 3.688 3.42397L3.64 3.5172C3.616 3.57936 3.552 3.61043 3.488 3.61043C1.56 3.61043 0 5.13319 0 6.99778V11.6127C0 13.4772 1.56 15 3.488 15H12.512C14.432 15 16 13.4772 16 11.6127V6.99778C16 5.13319 14.432 3.61043 12.512 3.61043" fill="white"/>
</svg>
