<svg width="25" height="23" viewBox="0 0 25 23" fill="none" xmlns="http://www.w3.org/2000/svg">
<path d="M19.5 10.4967H20V10.3581L19.9287 10.2393L19.5 10.4967ZM5.5 10.4967L5.07133 10.2393L5 10.3581V10.4967H5.5ZM7.62597 6.95576L7.19729 6.69839L7.62597 6.95576ZM17.374 6.95576L17.8027 6.69839L17.374 6.95576ZM8.5 15.5V15H8V15.5H8.5ZM16.5 15.5H17V15H16.5V15.5ZM19 10.4967V16.5H20V10.4967H19ZM5.92867 10.7541L8.05464 7.21314L7.19729 6.69839L5.07133 10.2393L5.92867 10.7541ZM10.198 6H14.802V5H10.198V6ZM16.9454 7.21314L19.0713 10.7541L19.9287 10.2393L17.8027 6.69839L16.9454 7.21314ZM7.5 17H6.5V18H7.5V17ZM8 15.5V16.5H9V15.5H8ZM18.5 17H17.5V18H18.5V17ZM17 16.5V15.5H16V16.5H17ZM16.5 15H8.5V16H16.5V15ZM6 16.5V10.4967H5V16.5H6ZM17.5 17C17.2239 17 17 16.7761 17 16.5H16C16 17.3284 16.6716 18 17.5 18V17ZM7.5 18C8.32843 18 9 17.3284 9 16.5H8C8 16.7761 7.77614 17 7.5 17V18ZM6.5 17C6.22386 17 6 16.7761 6 16.5H5C5 17.3284 5.67157 18 6.5 18V17ZM14.802 6C15.6799 6 16.4935 6.46048 16.9454 7.21314L17.8027 6.69839C17.1701 5.64467 16.0311 5 14.802 5V6ZM8.05464 7.21314C8.50653 6.46048 9.3201 6 10.198 6V5C8.96894 5 7.82994 5.64467 7.19729 6.69839L8.05464 7.21314ZM19 16.5C19 16.7761 18.7761 17 18.5 17V18C19.3284 18 20 17.3284 20 16.5H19ZM7 14H10V13H7V14ZM18 13H15V14H18V13ZM8 11H17V10H8V11Z" fill="#DCE1DE"/>
<path d="M24 1L1 22.5" stroke="#DCE1DE" stroke-width="0.5" stroke-linecap="round"/>
</svg>
