<svg width="25" height="25" viewBox="0 0 25 25" fill="none" xmlns="http://www.w3.org/2000/svg">
<circle cx="12.5" cy="12.5" r="12.5" fill="#878E88" fill-opacity="0.22"/>
<path d="M18.5667 11.6305H19V11.5104L18.9382 11.4075L18.5667 11.6305ZM6.43332 11.6305L6.0618 11.4075L5.99999 11.5104V11.6305H6.43332ZM8.27582 8.56171L7.90431 8.33865L7.90431 8.33865L8.27582 8.56171ZM16.7241 8.56171L17.0957 8.33865L17.0957 8.33865L16.7241 8.56171ZM9.03332 15.9667V15.5334H8.59999V15.9667H9.03332ZM15.9667 15.9667H16.4V15.5334H15.9667V15.9667ZM18.1333 11.6305V16.8334H19V11.6305H18.1333ZM6.80483 11.8536L8.64734 8.78477L7.90431 8.33865L6.0618 11.4075L6.80483 11.8536ZM10.5049 7.73338H14.4951V6.86672H10.5049V7.73338ZM16.3526 8.78477L18.1951 11.8536L18.9382 11.4075L17.0957 8.33865L16.3526 8.78477ZM8.16665 17.2667H7.29999V18.1334H8.16665V17.2667ZM8.59999 15.9667V16.8334H9.46665V15.9667H8.59999ZM17.7 17.2667H16.8333V18.1334H17.7V17.2667ZM16.4 16.8334V15.9667H15.5333V16.8334H16.4ZM15.9667 15.5334H9.03332V16.4H15.9667V15.5334ZM6.86665 16.8334V11.6305H5.99999V16.8334H6.86665ZM16.8333 17.2667C16.594 17.2667 16.4 17.0727 16.4 16.8334H15.5333C15.5333 17.5514 16.1153 18.1334 16.8333 18.1334V17.2667ZM8.16665 18.1334C8.88462 18.1334 9.46665 17.5514 9.46665 16.8334H8.59999C8.59999 17.0727 8.40598 17.2667 8.16665 17.2667V18.1334ZM7.29999 17.2667C7.06066 17.2667 6.86665 17.0727 6.86665 16.8334H5.99999C5.99999 17.5514 6.58202 18.1334 7.29999 18.1334V17.2667ZM14.4951 7.73338C15.2559 7.73338 15.961 8.13246 16.3526 8.78477L17.0957 8.33865C16.5474 7.42543 15.5602 6.86672 14.4951 6.86672V7.73338ZM8.64734 8.78477C9.03898 8.13246 9.74407 7.73338 10.5049 7.73338V6.86672C9.43973 6.86672 8.4526 7.42543 7.90431 8.33865L8.64734 8.78477ZM18.1333 16.8334C18.1333 17.0727 17.9393 17.2667 17.7 17.2667V18.1334C18.418 18.1334 19 17.5514 19 16.8334H18.1333ZM7.73332 14.6667H10.3333V13.8H7.73332V14.6667ZM17.2667 13.8H14.6667V14.6667H17.2667V13.8ZM8.59999 12.0667H16.4V11.2H8.59999V12.0667Z" fill="#7B7B7B"/>
</svg>
