<svg width="27" height="27" viewBox="0 0 27 27" fill="none" xmlns="http://www.w3.org/2000/svg">
<g clip-path="url(#clip0_868_1752)">
<path d="M27 6.17174C27 4.96848 26.0315 4 24.8283 4H2.17174C0.968478 4 0 4.96848 0 6.17174V19.4663C0 20.6402 0.968478 21.6087 2.17174 21.6087H24.8576C26.0609 21.6087 27.0293 20.6402 27.0293 19.437V6.17174H27ZM24.6522 6.34783V8.40217H2.34783V6.34783H24.6522ZM2.34783 19.2609V11.9239H24.6522V19.2609H2.34783ZM22.4511 15.4457C22.4511 16.0913 21.9228 16.6196 21.2772 16.6196H15.7011C15.0554 16.6196 14.5272 16.0913 14.5272 15.4457C14.5272 14.8 15.0554 14.2717 15.7011 14.2717H21.2772C21.9228 14.2717 22.4511 14.8 22.4511 15.4457Z" fill="#1F2421"/>
</g>
<defs>
<clipPath id="clip0_868_1752">
<rect width="27" height="27" fill="white"/>
</clipPath>
</defs>
</svg>
