<svg width="25" height="21" viewBox="0 0 25 21" fill="none" xmlns="http://www.w3.org/2000/svg">
<path d="M24.1666 8.82784H24.6666V8.68927L24.5953 8.57047L24.1666 8.82784ZM0.833252 8.82784L0.40458 8.57047L0.333252 8.68927V8.82784H0.833252ZM4.37653 2.92627L3.94786 2.6689L4.37653 2.92627ZM20.6233 2.92627L21.052 2.6689L20.6233 2.92627ZM5.83325 17.1667V16.6667H5.33325V17.1667H5.83325ZM19.1666 17.1667H19.6666V16.6667H19.1666V17.1667ZM23.6666 8.82784V18.8333H24.6666V8.82784H23.6666ZM1.26192 9.08521L4.8052 3.18365L3.94786 2.6689L0.40458 8.57047L1.26192 9.08521ZM8.66324 1H16.3366V0H8.66324V1ZM20.1946 3.18365L23.7379 9.08521L24.5953 8.57047L21.052 2.6689L20.1946 3.18365ZM4.16659 20H2.49992V21H4.16659V20ZM5.33325 17.1667V18.8333H6.33325V17.1667H5.33325ZM22.4999 20H20.8333V21H22.4999V20ZM19.6666 18.8333V17.1667H18.6666V18.8333H19.6666ZM19.1666 16.6667H5.83325V17.6667H19.1666V16.6667ZM1.33325 18.8333V8.82784H0.333252V18.8333H1.33325ZM20.8333 20C20.1889 20 19.6666 19.4777 19.6666 18.8333H18.6666C18.6666 20.03 19.6366 21 20.8333 21V20ZM4.16659 21C5.3632 21 6.33325 20.03 6.33325 18.8333H5.33325C5.33325 19.4777 4.81092 20 4.16659 20V21ZM2.49992 20C1.85559 20 1.33325 19.4777 1.33325 18.8333H0.333252C0.333252 20.0299 1.3033 21 2.49992 21V20ZM16.3366 1C17.9168 1 19.3812 1.82886 20.1946 3.18365L21.052 2.6689C20.0578 1.01305 18.268 0 16.3366 0V1ZM4.8052 3.18365C5.61861 1.82886 7.08303 1 8.66324 1V0C6.73187 0 4.94202 1.01305 3.94786 2.6689L4.8052 3.18365ZM23.6666 18.8333C23.6666 19.4777 23.1442 20 22.4999 20V21C23.6965 21 24.6666 20.03 24.6666 18.8333H23.6666ZM3.33325 14.3333H8.33325V13.3333H3.33325V14.3333ZM21.6666 13.3333H16.6666V14.3333H21.6666V13.3333ZM4.99992 9.33333H19.9999V8.33333H4.99992V9.33333Z" fill="#403845"/>
</svg>
