<svg width="9" height="5" viewBox="0 0 9 5" fill="none" xmlns="http://www.w3.org/2000/svg">
<path d="M7.98009 0.222412H1.05602C0.940127 0.222412 0.846191 0.316348 0.846191 0.43224V4.09792C0.846191 4.21379 0.940127 4.30775 1.05602 4.30775H7.98011C8.09598 4.30775 8.18994 4.21381 8.18994 4.09792V0.43224C8.18992 0.316348 8.09598 0.222412 7.98009 0.222412Z" fill="#17AB93"/>
<path d="M7.98024 0.222412H4.53467V4.30775H7.98024C8.0961 4.30775 8.19006 4.21381 8.19006 4.09792V0.43224C8.19006 0.316348 8.09613 0.222412 7.98024 0.222412Z" fill="#129179"/>
<path d="M2.35272 0.531006H1.15527V1.72845L2.35272 0.531006Z" fill="#82D9C8"/>
<path d="M7.88153 2.80176L6.68408 3.99921H7.88153V2.80176Z" fill="#82D9C8"/>
<path d="M2.35272 3.99921L1.15527 2.80176V3.99921H2.35272Z" fill="#82D9C8"/>
<path d="M7.88153 0.531006H6.68408L7.88153 1.72845V0.531006Z" fill="#82D9C8"/>
<path d="M4.51816 0.919922C3.77635 0.919922 3.17285 1.52342 3.17285 2.26523C3.17285 3.00705 3.77635 3.61054 4.51816 3.61054C5.25998 3.61054 5.86347 3.00705 5.86347 2.26523C5.86347 1.52342 5.25998 0.919922 4.51816 0.919922Z" fill="#D5F5E6"/>
<path d="M5.86354 2.26508C5.86354 1.52878 5.26892 0.929068 4.53467 0.920166V3.60997C5.26892 3.6011 5.86354 3.00138 5.86354 2.26508Z" fill="#C6E5D5"/>
</svg>
