<svg width="20" height="20" viewBox="0 0 20 20" fill="none" xmlns="http://www.w3.org/2000/svg">
<path d="M11.6875 16.9688C9.125 16.5312 9.375 15.875 9.375 15.4375V14.6562C9.78458 14.241 10.1063 13.7476 10.3211 13.2053C10.5359 12.663 10.6392 12.0831 10.625 11.5V9.40625C10.625 7.125 8.96875 6.25 7.5 6.25C6.03125 6.25 4.375 7.125 4.375 9.40625V11.5C4.36487 12.0853 4.47315 12.6666 4.69333 13.209C4.9135 13.7513 5.24103 14.2436 5.65625 14.6562V15.4375C5.65625 15.875 5.875 16.5312 3.34375 16.9688C0.8125 17.4062 0.625 18.75 0.625 19.375H14.375C14.375 18.75 13.9688 17.375 11.6875 16.9688Z" fill="#1F2421"/>
<path d="M15.3125 0.62535H11.5625C10.4851 0.62535 9.45174 1.05336 8.68988 1.81523C7.92801 2.5771 7.5 3.61041 7.5 4.68785C7.5 4.7816 7.5 4.9066 7.53125 5.00035C9.46875 5.00035 11.5625 6.18785 11.8438 8.75035H13.125V10.9378L15.5 8.75035C16.5774 8.72549 17.6009 8.27363 18.3452 7.49418C19.0894 6.71473 19.4936 5.67154 19.4687 4.5941C19.4439 3.51666 18.992 2.49322 18.2126 1.74894C17.4331 1.00465 16.3899 0.600486 15.3125 0.62535ZM11.375 5.12535C11.2546 5.21562 11.1058 5.25944 10.9557 5.24878C10.8056 5.23811 10.6644 5.17367 10.5581 5.06729C10.4517 4.96091 10.3872 4.81972 10.3766 4.66966C10.3659 4.51959 10.4097 4.37071 10.5 4.25035C10.6203 4.14274 10.7761 4.08324 10.9375 4.08324C11.0989 4.08324 11.2547 4.14274 11.375 4.25035C11.4928 4.36574 11.5602 4.52299 11.5625 4.68785C11.5602 4.85271 11.4928 5.00996 11.375 5.12535ZM13.875 5.12535C13.7578 5.2404 13.6017 5.3073 13.4375 5.31285C13.2717 5.31285 13.1128 5.247 12.9956 5.12979C12.8783 5.01258 12.8125 4.85361 12.8125 4.68785C12.8148 4.52299 12.8822 4.36574 13 4.25035C13.1203 4.14274 13.2761 4.08324 13.4375 4.08324C13.5989 4.08324 13.7547 4.14274 13.875 4.25035C13.9928 4.36574 14.0602 4.52299 14.0625 4.68785C14.0602 4.85271 13.9928 5.00996 13.875 5.12535ZM16.375 5.12535C16.2596 5.24311 16.1024 5.3105 15.9375 5.31285C15.7717 5.31285 15.6128 5.247 15.4956 5.12979C15.3783 5.01258 15.3125 4.85361 15.3125 4.68785C15.3148 4.52299 15.3822 4.36574 15.5 4.25035C15.6203 4.14274 15.7761 4.08324 15.9375 4.08324C16.0989 4.08324 16.2547 4.14274 16.375 4.25035C16.4928 4.36574 16.5602 4.52299 16.5625 4.68785C16.5602 4.85271 16.4928 5.00996 16.375 5.12535Z" fill="#1F2421"/>
</svg>
