<svg width="18" height="18" viewBox="0 0 18 18" fill="none" xmlns="http://www.w3.org/2000/svg">
<g id="Iconly/Bulk/Discovery">
<g id="Discovery">
<path id="Fill 1" opacity="0.4" d="M16.5 9C16.5 13.1422 13.1422 16.5 9 16.5C4.85775 16.5 1.5 13.1422 1.5 9C1.5 4.8585 4.85775 1.5 9 1.5C13.1422 1.5 16.5 4.8585 16.5 9" fill="#A1A2A1"/>
<path id="Fill 4" d="M11.895 6.52885L10.68 10.3689C10.635 10.5264 10.5075 10.6539 10.35 10.6996L6.52503 11.8989C6.27003 11.9821 6.02253 11.7339 6.10503 11.4789L7.30503 7.63135C7.35003 7.47385 7.47753 7.35385 7.63503 7.30135L11.475 6.10135C11.7375 6.01885 11.9775 6.26635 11.895 6.52885" fill="#A1A2A1"/>
</g>
</g>
</svg>
