<svg width="18" height="18" viewBox="0 0 18 18" fill="none" xmlns="http://www.w3.org/2000/svg">
<path d="M0.875 5.25C1.04076 5.25 1.19973 5.18415 1.31694 5.06694C1.43415 4.94973 1.5 4.79076 1.5 4.625V3.375C1.5 2.87772 1.69754 2.40081 2.04917 2.04917C2.40081 1.69754 2.87772 1.5 3.375 1.5H4.625C4.79076 1.5 4.94973 1.43415 5.06694 1.31694C5.18415 1.19973 5.25 1.04076 5.25 0.875C5.25 0.70924 5.18415 0.550268 5.06694 0.433058C4.94973 0.315848 4.79076 0.25 4.625 0.25H3.375C2.5462 0.25 1.75134 0.57924 1.16529 1.16529C0.57924 1.75134 0.25 2.5462 0.25 3.375V4.625C0.25 4.79076 0.315848 4.94973 0.433058 5.06694C0.550268 5.18415 0.70924 5.25 0.875 5.25Z" fill="white"/>
<path d="M4.625 16.5H3.375C2.88309 16.5001 2.41085 16.3068 2.0601 15.9619C1.70936 15.617 1.5082 15.1481 1.5 14.6562V13.375C1.5 13.2092 1.43415 13.0503 1.31694 12.9331C1.19973 12.8158 1.04076 12.75 0.875 12.75C0.70924 12.75 0.550268 12.8158 0.433058 12.9331C0.315848 13.0503 0.25 13.2092 0.25 13.375V14.6562C0.258234 15.4796 0.591106 16.2665 1.17627 16.8458C1.76143 17.4251 2.55158 17.75 3.375 17.75H4.625C4.79076 17.75 4.94973 17.6842 5.06694 17.5669C5.18415 17.4497 5.25 17.2908 5.25 17.125C5.25 16.9592 5.18415 16.8003 5.06694 16.6831C4.94973 16.5658 4.79076 16.5 4.625 16.5Z" fill="white"/>
<path d="M17.125 12.75C16.9592 12.75 16.8003 12.8158 16.6831 12.9331C16.5658 13.0503 16.5 13.2092 16.5 13.375V14.6562C16.492 15.1427 16.2951 15.607 15.9511 15.9511C15.607 16.2951 15.1427 16.492 14.6562 16.5H13.375C13.2092 16.5 13.0503 16.5658 12.9331 16.6831C12.8158 16.8003 12.75 16.9592 12.75 17.125C12.75 17.2908 12.8158 17.4497 12.9331 17.5669C13.0503 17.6842 13.2092 17.75 13.375 17.75H14.6562C15.4742 17.7419 16.2564 17.4133 16.8349 16.8349C17.4133 16.2564 17.7419 15.4742 17.75 14.6562V13.375C17.75 13.2092 17.6842 13.0503 17.5669 12.9331C17.4497 12.8158 17.2908 12.75 17.125 12.75Z" fill="white"/>
<path d="M14.6562 0.25H13.375C13.2092 0.25 13.0503 0.315848 12.9331 0.433058C12.8158 0.550268 12.75 0.70924 12.75 0.875C12.75 1.04076 12.8158 1.19973 12.9331 1.31694C13.0503 1.43415 13.2092 1.5 13.375 1.5H14.6562C15.1481 1.5082 15.617 1.70936 15.9619 2.0601C16.3068 2.41085 16.5001 2.88309 16.5 3.375V4.625C16.5 4.79076 16.5658 4.94973 16.6831 5.06694C16.8003 5.18415 16.9592 5.25 17.125 5.25C17.2908 5.25 17.4497 5.18415 17.5669 5.06694C17.6842 4.94973 17.75 4.79076 17.75 4.625V3.375C17.75 2.55158 17.4251 1.76143 16.8458 1.17627C16.2665 0.591106 15.4796 0.258234 14.6562 0.25V0.25Z" fill="white"/>
<path d="M5.25 5.875C5.25 6.04076 5.31585 6.19973 5.43306 6.31694C5.55027 6.43415 5.70924 6.5 5.875 6.5C6.04076 6.5 6.19973 6.43415 6.31694 6.31694C6.43415 6.19973 6.5 6.04076 6.5 5.875V4C6.5 3.83424 6.43415 3.67527 6.31694 3.55806C6.19973 3.44085 6.04076 3.375 5.875 3.375C5.70924 3.375 5.55027 3.44085 5.43306 3.55806C5.31585 3.67527 5.25 3.83424 5.25 4V5.875Z" fill="white"/>
<path d="M12.125 6.5C12.2908 6.5 12.4497 6.43415 12.5669 6.31694C12.6842 6.19973 12.75 6.04076 12.75 5.875V4C12.75 3.83424 12.6842 3.67527 12.5669 3.55806C12.4497 3.44085 12.2908 3.375 12.125 3.375C11.9592 3.375 11.8003 3.44085 11.6831 3.55806C11.5658 3.67527 11.5 3.83424 11.5 4V5.875C11.5 6.04076 11.5658 6.19973 11.6831 6.31694C11.8003 6.43415 11.9592 6.5 12.125 6.5Z" fill="white"/>
<path d="M7.75 10.875H9.625C9.71479 10.8758 9.8037 10.8572 9.88567 10.8205C9.96763 10.7839 10.0407 10.73 10.1 10.6625C10.1585 10.5944 10.2016 10.5144 10.2264 10.4282C10.2512 10.3419 10.2571 10.2513 10.2437 10.1625L9.61875 5.78749C9.59554 5.62173 9.50744 5.47198 9.37382 5.37118C9.2402 5.27038 9.07201 5.22679 8.90625 5.24999C8.74049 5.2732 8.59074 5.36131 8.48994 5.49492C8.38914 5.62854 8.34554 5.79673 8.36875 5.96249L8.90625 9.62499H7.75C7.58424 9.62499 7.42527 9.69084 7.30806 9.80805C7.19085 9.92526 7.125 10.0842 7.125 10.25C7.125 10.4158 7.19085 10.5747 7.30806 10.6919C7.42527 10.8091 7.58424 10.875 7.75 10.875V10.875Z" fill="white"/>
<path d="M13.3062 12.4687C13.2313 12.3215 13.1011 12.21 12.9442 12.1584C12.7873 12.1069 12.6163 12.1196 12.4687 12.1937L11.2687 12.8187C10.5631 13.1671 9.78684 13.3482 8.99997 13.3482C8.2131 13.3482 7.43679 13.1671 6.73122 12.8187L5.53122 12.1937C5.45758 12.1494 5.37559 12.1208 5.29038 12.1096C5.20516 12.0984 5.11855 12.1049 5.03597 12.1287C4.95338 12.1525 4.87659 12.193 4.81039 12.2478C4.74419 12.3027 4.69001 12.3705 4.65123 12.4472C4.61245 12.5239 4.5899 12.6078 4.585 12.6936C4.5801 12.7794 4.59295 12.8653 4.62275 12.9459C4.65254 13.0265 4.69865 13.1001 4.75818 13.1621C4.81771 13.2241 4.88938 13.2732 4.96872 13.3062L6.17497 13.9312C7.04971 14.3628 8.01205 14.5873 8.98747 14.5873C9.96289 14.5873 10.9252 14.3628 11.8 13.9312L13.0062 13.3062C13.0813 13.2714 13.1487 13.2219 13.2045 13.1608C13.2603 13.0997 13.3034 13.0281 13.3313 12.9502C13.3592 12.8723 13.3713 12.7896 13.367 12.7069C13.3627 12.6243 13.3421 12.5433 13.3062 12.4687V12.4687Z" fill="white"/>
</svg>
