<svg width="20" height="20" viewBox="0 0 20 20" fill="none" xmlns="http://www.w3.org/2000/svg">
<g clip-path="url(#clip0_352_3014)">
<path d="M1.9998 0H17.9982C19.1016 0 19.998 0.894911 19.998 1.9998V13.9986C19.998 15.1025 19.1016 15.9984 17.9982 15.9984L11.9031 16.0004L8.19648 19.705C8.0039 19.8976 7.75366 19.9954 7.50125 19.998L7.49925 20H6.9993C6.44708 20 5.9994 19.5523 5.9994 19.0001V16.0004H1.9998C0.89534 16.0004 0 15.1051 0 14.0006L0.00976884 1.9998C0.00976884 0.894911 0.8959 0 1.9998 0ZM10.1845 3.49965C9.30187 3.49965 8.58874 3.68143 8.04799 4.0446C7.51126 4.40426 7.22173 4.9859 7.2688 5.69483H9.23538C9.24338 5.41466 9.33767 5.20388 9.51665 5.062C9.69553 4.92021 9.91811 4.84921 10.1845 4.84921C10.5145 4.84921 10.7692 4.93601 10.9481 5.10889C11.1271 5.28187 11.2157 5.51365 11.2157 5.80412C11.2157 6.08429 11.1384 6.33187 10.9833 6.54624C10.8322 6.76072 10.6227 6.94 10.3564 7.08529C9.83951 7.39996 9.48495 7.67713 9.29007 7.91921C9.09529 8.16129 8.9953 8.52435 8.9913 9.005H11.0067C11.0067 8.71793 11.0501 8.49135 11.1376 8.32537C11.229 8.15589 11.4026 7.998 11.657 7.85282C12.1143 7.64524 12.4896 7.36056 12.7839 6.9974C13.0821 6.63423 13.2311 6.23647 13.2311 5.80412C13.2311 5.09869 12.9595 4.53764 12.4148 4.12269C11.874 3.70773 11.1308 3.49965 10.1845 3.49965ZM8.9991 10.001V12.0008H10.9989V10.001H8.9991Z" fill="#1F2421"/>
</g>
<defs>
<clipPath id="clip0_352_3014">
<rect width="19.998" height="20" fill="white"/>
</clipPath>
</defs>
</svg>
