<svg width="25" height="19" viewBox="0 0 25 19" fill="none" xmlns="http://www.w3.org/2000/svg">
<path d="M16.3611 15.5558L15.9139 15.7794L16.3611 15.5558ZM15.8333 14.5001L16.2805 14.2765C16.1958 14.1071 16.0226 14.0001 15.8333 14.0001V14.5001ZM9.16658 14.5001V14.0001C8.9772 14.0001 8.80407 14.1071 8.71937 14.2765L9.16658 14.5001ZM23.6666 6.16675V13.7132H24.6666V6.16675H23.6666ZM16.8083 15.3322L16.2805 14.2765L15.386 14.7237L15.9139 15.7794L16.8083 15.3322ZM15.8333 14.0001H9.16658V15.0001H15.8333V14.0001ZM8.71937 14.2765L8.19151 15.3322L9.08593 15.7794L9.6138 14.7237L8.71937 14.2765ZM1.33325 13.7132V6.16675H0.333252V13.7132H1.33325ZM5.83325 1.66675H19.1666V0.666748H5.83325V1.66675ZM4.95348 17.3334C2.95408 17.3334 1.33325 15.7126 1.33325 13.7132H0.333252C0.333252 16.2649 2.4018 18.3334 4.95348 18.3334V17.3334ZM20.0464 17.3334C18.6751 17.3334 17.4216 16.5587 16.8083 15.3322L15.9139 15.7794C16.6965 17.3447 18.2963 18.3334 20.0464 18.3334V17.3334ZM23.6666 13.7132C23.6666 15.7126 22.0458 17.3334 20.0464 17.3334V18.3334C22.598 18.3334 24.6666 16.2649 24.6666 13.7132H23.6666ZM8.19151 15.3322C7.57827 16.5587 6.32472 17.3334 4.95348 17.3334V18.3334C6.70349 18.3334 8.3033 17.3447 9.08593 15.7794L8.19151 15.3322ZM24.6666 6.16675C24.6666 3.12918 22.2041 0.666748 19.1666 0.666748V1.66675C21.6519 1.66675 23.6666 3.68147 23.6666 6.16675H24.6666ZM1.33325 6.16675C1.33325 3.68147 3.34797 1.66675 5.83325 1.66675V0.666748C2.79569 0.666748 0.333252 3.12918 0.333252 6.16675H1.33325ZM4.99992 8.33341H9.99992V7.33341H4.99992V8.33341ZM6.99992 5.33341V10.3334H7.99992V5.33341H6.99992ZM18.3333 6.66675H19.9999V5.66675H18.3333V6.66675ZM14.9999 10.0001H16.6666V9.00008H14.9999V10.0001Z" fill="#403845"/>
</svg>
