<svg width="25" height="25" viewBox="0 0 25 25" fill="none" xmlns="http://www.w3.org/2000/svg">
<path d="M0.833252 9.16658L0.542633 8.75972C0.411235 8.85357 0.333252 9.00511 0.333252 9.16658H0.833252ZM12.4999 0.833252L12.7905 0.426385C12.6167 0.302208 12.3831 0.302208 12.2093 0.426385L12.4999 0.833252ZM24.1666 9.16658H24.6666C24.6666 9.00511 24.5886 8.85357 24.4572 8.75972L24.1666 9.16658ZM4.16659 12.4999V11.9999H3.66659V12.4999H4.16659ZM20.8333 12.4999H21.3333V11.9999H20.8333V12.4999ZM1.33325 24.9999V9.16658H0.333252V24.9999H1.33325ZM1.12387 9.57345L12.7905 1.24012L12.2093 0.426385L0.542633 8.75972L1.12387 9.57345ZM12.2093 1.24012L23.876 9.57345L24.4572 8.75972L12.7905 0.426385L12.2093 1.24012ZM23.6666 9.16658V24.9999H24.6666V9.16658H23.6666ZM4.66659 24.9999V12.4999H3.66659V24.9999H4.66659ZM4.16659 12.9999H20.8333V11.9999H4.16659V12.9999ZM20.3333 12.4999V24.9999H21.3333V12.4999H20.3333ZM4.16659 17.9999H20.8333V16.9999H4.16659V17.9999ZM9.99992 21.3333H14.9999V20.3333H9.99992V21.3333Z" fill="#1F2421"/>
</svg>
