<svg width="22" height="22" viewBox="0 0 22 22" fill="none" xmlns="http://www.w3.org/2000/svg">
<g clip-path="url(#clip0_187_1824)">
<path d="M4.87566 13.2948L4.10988 16.1536L1.31093 16.2128C0.474461 14.6614 0 12.8863 0 11C0 9.17589 0.443609 7.45577 1.22994 5.94116H1.23054L3.72238 6.39801L4.81396 8.8749C4.5855 9.54095 4.46097 10.256 4.46097 11C4.46106 11.8074 4.60732 12.5811 4.87566 13.2948Z" fill="#FBBB00"/>
<path d="M21.8077 8.94507C21.9341 9.61048 21.9999 10.2977 21.9999 11C21.9999 11.7875 21.9171 12.5557 21.7594 13.2967C21.2239 15.8183 19.8247 18.0201 17.8864 19.5782L17.8858 19.5776L14.7472 19.4175L14.303 16.6445C15.5892 15.8902 16.5943 14.7098 17.1238 13.2967H11.2418V8.94507H17.2096H21.8077Z" fill="#518EF8"/>
<path d="M17.8859 19.5776L17.8865 19.5782C16.0014 21.0934 13.6068 22 11 22C6.81097 22 3.1689 19.6586 1.31097 16.2129L4.8757 13.2949C5.80465 15.7741 8.19624 17.539 11 17.539C12.2052 17.539 13.3342 17.2132 14.303 16.6445L17.8859 19.5776Z" fill="#28B446"/>
<path d="M18.0213 2.53241L14.4578 5.44981C13.4551 4.82307 12.2699 4.46102 11 4.46102C8.13278 4.46102 5.69645 6.30682 4.81405 8.87494L1.23058 5.9412H1.22998C3.06071 2.41154 6.74871 0 11 0C13.669 0 16.1162 0.950726 18.0213 2.53241Z" fill="#F14336"/>
</g>
<defs>
<clipPath id="clip0_187_1824">
<rect width="22" height="22" fill="white"/>
</clipPath>
</defs>
</svg>
