<svg width="20" height="20" viewBox="0 0 20 20" fill="none" xmlns="http://www.w3.org/2000/svg">
<path d="M12.4688 12.625C13.0682 12.1739 13.5531 11.5881 13.8843 10.915C14.2154 10.2418 14.3835 9.50016 14.375 8.75C14.375 6.15625 12.4062 4.0625 10 4.0625C7.59375 4.0625 5.625 6.15625 5.625 8.75C5.61645 9.50016 5.78456 10.2418 6.11571 10.915C6.44687 11.5881 6.93178 12.1739 7.53125 12.625C6.06705 13.1402 4.79782 14.0953 3.89721 15.3595C2.9966 16.6237 2.5086 18.1353 2.5 19.6875H17.5C17.4914 18.1353 17.0034 16.6237 16.1028 15.3595C15.2022 14.0953 13.9329 13.1402 12.4688 12.625Z" fill="#1F2421"/>
<path d="M16.25 5.9375H15.625C15.625 4.44566 15.0324 3.01492 13.9775 1.96002C12.9226 0.905132 11.4918 0.3125 10 0.3125C8.50816 0.3125 7.07742 0.905132 6.02252 1.96002C4.96763 3.01492 4.375 4.44566 4.375 5.9375H3.75C3.41848 5.9375 3.10054 6.0692 2.86612 6.30362C2.6317 6.53804 2.5 6.85598 2.5 7.1875V10.3125C2.5 10.644 2.6317 10.962 2.86612 11.1964C3.10054 11.4308 3.41848 11.5625 3.75 11.5625H5.0625C4.61413 10.6926 4.37851 9.72868 4.375 8.75C4.37207 7.32345 4.86972 5.94109 5.78125 4.84375C6.02489 3.90613 6.57285 3.0759 7.33918 2.48325C8.10551 1.8906 9.04687 1.56907 10.0156 1.56907C10.9844 1.56907 11.9257 1.8906 12.6921 2.48325C13.4584 3.0759 14.0064 3.90613 14.25 4.84375C15.1503 5.9454 15.6367 7.32733 15.625 8.75C15.6215 9.72868 15.3859 10.6926 14.9375 11.5625H16.25C16.5815 11.5625 16.8995 11.4308 17.1339 11.1964C17.3683 10.962 17.5 10.644 17.5 10.3125V7.1875C17.5 6.85598 17.3683 6.53804 17.1339 6.30362C16.8995 6.0692 16.5815 5.9375 16.25 5.9375Z" fill="#1F2421"/>
</svg>
