<svg width="26" height="26" viewBox="0 0 26 26" fill="none" xmlns="http://www.w3.org/2000/svg">
<path d="M0.866669 9.53337L0.57605 9.1265L0.366669 9.27606V9.53337H0.866669ZM13 0.866699L13.2906 0.459832C13.1168 0.335655 12.8832 0.335655 12.7094 0.459832L13 0.866699ZM25.1333 9.53337H25.6333V9.27606L25.424 9.1265L25.1333 9.53337ZM4.33334 14.7334V14.2334H3.83334V14.7334H4.33334ZM11.2667 14.7334H11.7667V14.2334H11.2667V14.7334ZM1.36667 26V9.53337H0.366669V26H1.36667ZM1.15729 9.94023L13.2906 1.27357L12.7094 0.459832L0.57605 9.1265L1.15729 9.94023ZM12.7094 1.27357L24.8427 9.94023L25.424 9.1265L13.2906 0.459832L12.7094 1.27357ZM24.6333 9.53337V26H25.6333V9.53337H24.6333ZM4.83334 26V14.7334H3.83334V26H4.83334ZM4.33334 15.2334H11.2667V14.2334H4.33334V15.2334ZM10.7667 14.7334V26H11.7667V14.7334H10.7667ZM8.66667 20.4334H11.2667V19.4334H8.66667V20.4334ZM19.4333 13.8667V20.8H20.4333V13.8667H19.4333ZM22.9 3.4667V7.80003H23.9V3.4667H22.9Z" fill="#403845"/>
</svg>
