<svg width="26" height="26" viewBox="0 0 26 26" fill="none" xmlns="http://www.w3.org/2000/svg">
<path d="M13 0.866699L13.2236 0.419486C13.0828 0.349104 12.9172 0.349104 12.7764 0.419486L13 0.866699ZM2.6 6.0667L2.37639 5.61949L2.1 5.75768V6.0667H2.6ZM23.4 6.0667H23.9V5.75768L23.6236 5.61949L23.4 6.0667ZM9.53333 18.2V17.7H9.03333V18.2H9.53333ZM16.4667 18.2H16.9667V17.7H16.4667V18.2ZM0 25.6334H26V24.6334H0V25.6334ZM12.7764 0.419486L2.37639 5.61949L2.82361 6.51391L13.2236 1.31391L12.7764 0.419486ZM23.6236 5.61949L13.2236 0.419486L12.7764 1.31391L23.1764 6.51391L23.6236 5.61949ZM12.5 5.20003V9.53337H13.5V5.20003H12.5ZM12.5 9.53337V13.8667H13.5V9.53337H12.5ZM8.66667 10.0334H13V9.03337H8.66667V10.0334ZM13 10.0334H17.3333V9.03337H13V10.0334ZM2.1 6.0667V25.1334H3.1V6.0667H2.1ZM22.9 6.0667V25.1334H23.9V6.0667H22.9ZM10.0333 25.1334V18.2H9.03333V25.1334H10.0333ZM9.53333 18.7H16.4667V17.7H9.53333V18.7ZM15.9667 18.2V25.1334H16.9667V18.2H15.9667Z" fill="#403845"/>
</svg>
