<svg width="10" height="11" viewBox="0 0 10 11" fill="none" xmlns="http://www.w3.org/2000/svg">
<path d="M5 10.864L1.818 7.68196C1.18867 7.05262 0.760093 6.2508 0.586464 5.37789C0.412835 4.50497 0.501953 3.60018 0.842549 2.77791C1.18315 1.95565 1.75992 1.25285 2.49994 0.758383C3.23996 0.263919 4.10999 0 5 0C5.89002 0 6.76004 0.263919 7.50006 0.758383C8.24008 1.25285 8.81686 1.95565 9.15745 2.77791C9.49805 3.60018 9.58717 4.50497 9.41354 5.37789C9.23991 6.2508 8.81133 7.05262 8.182 7.68196L5 10.864ZM7.475 6.97496C7.96445 6.48546 8.29776 5.86182 8.43278 5.1829C8.5678 4.50397 8.49846 3.80026 8.23355 3.16074C7.96863 2.52122 7.52002 1.97461 6.94446 1.59005C6.3689 1.20548 5.69222 1.00021 5 1.00021C4.30778 1.00021 3.63111 1.20548 3.05554 1.59005C2.47998 1.97461 2.03138 2.52122 1.76646 3.16074C1.50154 3.80026 1.43221 4.50397 1.56723 5.1829C1.70225 5.86182 2.03555 6.48546 2.525 6.97496L5 9.44996L7.475 6.97496V6.97496ZM5 5.49996C4.73479 5.49996 4.48043 5.3946 4.2929 5.20707C4.10536 5.01953 4 4.76518 4 4.49996C4 4.23474 4.10536 3.98039 4.2929 3.79285C4.48043 3.60532 4.73479 3.49996 5 3.49996C5.26522 3.49996 5.51957 3.60532 5.70711 3.79285C5.89464 3.98039 6 4.23474 6 4.49996C6 4.76518 5.89464 5.01953 5.70711 5.20707C5.51957 5.3946 5.26522 5.49996 5 5.49996Z" fill="#0D105C"/>
</svg>
