<svg width="28" height="22" viewBox="0 0 28 22" fill="none" xmlns="http://www.w3.org/2000/svg">
<path d="M17.0295 5.90153C15.1473 4.81562 12.1067 4.81562 10.2356 5.90153C8.36446 6.98745 8.3756 8.75275 10.2579 9.83867C12.1401 10.9246 15.1807 10.9246 17.0518 9.83867C18.9229 8.74719 18.9118 6.98745 17.0295 5.90153ZM16.1663 7.61115C16.0049 7.66127 15.8434 7.71696 15.6819 7.76708C15.5816 7.79492 15.5204 7.80049 15.4758 7.77821C15.4535 7.76151 15.4313 7.73923 15.409 7.70582C15.3032 7.53319 15.1417 7.38283 14.9245 7.26032C14.8967 7.24361 14.8632 7.2269 14.8298 7.2102C14.7574 7.17122 14.6906 7.14337 14.6015 7.1211C14.2897 7.0487 14.0112 7.16565 14.0502 7.36056C14.0669 7.46079 14.1226 7.54989 14.1894 7.64456C14.3008 7.80049 14.4233 7.95642 14.5013 8.12348C14.763 8.64695 14.195 9.16484 13.2817 9.21496C12.9532 9.23167 12.6413 9.19269 12.3517 9.09802C12.2236 9.05904 12.129 9.05904 12.0343 9.12586C11.9396 9.18712 11.8338 9.24281 11.7336 9.2985C11.6445 9.34861 11.5498 9.35418 11.4607 9.30406C11.3939 9.27065 11.3326 9.23167 11.2658 9.19826C11.2213 9.17041 11.1767 9.14814 11.1322 9.12029C11.0375 9.06461 11.0486 9.00892 11.1377 8.95323C11.2101 8.90868 11.2825 8.8697 11.3493 8.82515C11.5108 8.73048 11.5108 8.72491 11.3772 8.6191C11.2101 8.48545 11.0598 8.34623 10.9651 8.19031C10.8927 8.06779 10.9094 8.03995 11.1043 7.97312C11.2491 7.92857 11.3883 7.87845 11.5331 7.8339C11.6389 7.80049 11.7002 7.79492 11.7447 7.8172C11.7726 7.8339 11.7893 7.85618 11.8115 7.89516C11.9062 8.07336 12.0677 8.22929 12.2626 8.37964C12.296 8.40749 12.335 8.42976 12.3684 8.45204C12.4742 8.5133 12.5967 8.55785 12.736 8.59126C13.0979 8.67479 13.4209 8.53 13.3875 8.30168C13.3764 8.22372 13.3374 8.15689 13.2873 8.0845C13.1648 7.90073 13.0033 7.7281 12.9197 7.53319C12.7861 7.22133 12.8473 6.93733 13.2761 6.71458C13.7662 6.46398 14.3119 6.44727 14.8911 6.6032C15.1306 6.67002 15.125 6.67002 15.3088 6.56422C15.37 6.52524 15.4313 6.49182 15.4925 6.45841C15.6317 6.38045 15.6819 6.38045 15.8211 6.45841C15.8656 6.48069 15.9046 6.50853 15.9492 6.5308C16.2443 6.69787 16.2443 6.69787 15.9547 6.8705C15.7487 6.98745 15.7487 6.98745 15.9213 7.12667C16.055 7.23247 16.1608 7.34385 16.2387 7.46636C16.3 7.52762 16.2777 7.57774 16.1663 7.61115ZM19.541 11.2754C19.0231 11.5761 18.1822 11.5761 17.6588 11.2754C17.1409 10.9747 17.1353 10.4846 17.6532 10.1839C18.1711 9.88322 19.012 9.88322 19.5355 10.1839C20.0589 10.4846 20.0645 10.9747 19.541 11.2754ZM9.62858 5.5507C9.11068 5.85141 8.2698 5.85141 7.74633 5.5507C7.22286 5.24998 7.22286 4.75993 7.74076 4.45921C8.25866 4.1585 9.09955 4.1585 9.62301 4.45921C10.1409 4.75993 10.1465 5.24998 9.62858 5.5507ZM26.5856 8.94209L11.7447 0.371717C10.8871 -0.123906 9.49493 -0.123906 8.6429 0.371717L0.685096 4.99382C-0.16693 5.48944 -0.161361 6.29692 0.696234 6.79254L15.5371 15.3629C16.3947 15.8585 17.7869 15.8585 18.6389 15.3629L26.5911 10.7408C27.4487 10.2452 27.4432 9.43772 26.5856 8.94209ZM18.8004 13.7313C18.7057 13.6422 18.5943 13.5586 18.4607 13.4807C17.592 12.9795 16.1831 12.9795 15.3199 13.4807C15.2531 13.5196 15.1974 13.5586 15.1361 13.6032L3.61428 6.94846C3.72566 6.90391 3.83147 6.8538 3.9317 6.79811C4.79487 6.29692 4.7893 5.48387 3.92057 4.98268C3.8259 4.92699 3.72566 4.87687 3.61985 4.83789L8.37003 2.07577C8.44243 2.13703 8.52596 2.19271 8.62063 2.2484C9.48936 2.74959 10.8983 2.74959 11.7614 2.2484C11.8617 2.19271 11.9452 2.13146 12.0232 2.06463L23.584 8.73605C23.4281 8.79174 23.2888 8.85299 23.1552 8.93096C22.292 9.43215 22.292 10.2508 23.1663 10.752C23.3 10.8299 23.4503 10.8912 23.6063 10.9469L18.8004 13.7313ZM0.306418 8.50773C0.685096 8.31282 1.26982 8.34066 1.63179 8.55228L17.1465 17.5069L25.5331 12.6286C25.895 12.417 26.4909 12.417 26.8584 12.6286C27.226 12.8403 27.226 13.1855 26.864 13.3971L17.9484 18.5761C17.514 18.8323 16.8012 18.8323 16.3613 18.5761L16.0494 18.3979L15.8322 18.2698L0.278574 9.29293C-0.100104 9.07574 -0.0945353 8.71377 0.306418 8.50773ZM26.8751 16.1982L17.9595 21.3772C17.5251 21.6334 16.8123 21.6334 16.3724 21.3772L16.0661 21.199L15.8434 21.0709L0.289712 12.094C-0.0889665 11.8768 -0.0778289 11.5149 0.323124 11.3088C0.696234 11.1139 1.28653 11.1418 1.6485 11.3534L17.1576 20.308L25.5442 15.4353C25.9117 15.2237 26.502 15.2237 26.8696 15.4353C27.2371 15.6414 27.2427 15.9866 26.8751 16.1982Z" fill="#F3F3C1"/>
</svg>
