<svg width="9" height="8" viewBox="0 0 9 8" fill="none" xmlns="http://www.w3.org/2000/svg">
<g clip-path="url(#clip0_253_823)">
<path d="M8.22754 1.20068L7.1774 0.20575C7.0374 0.0731812 6.85095 6.10352e-05 6.65246 0C6.65233 0 6.65227 0 6.65214 0C6.45364 0 6.26732 0.072998 6.12745 0.205505L0.773012 5.27808C0.729138 5.32062 0.711098 5.38116 0.698084 5.41907L0.00988641 7.70105C-0.0147887 7.78296 0.00930658 7.87109 0.0728305 7.93127C0.119926 7.97589 0.183192 8 0.247876 8C0.270618 8 0.293489 7.99707 0.31591 7.99097L2.72331 7.33936C2.73046 7.3374 2.83683 7.30273 2.87349 7.26801L8.22787 2.19537C8.36786 2.06281 8.44485 1.88617 8.44479 1.698C8.44472 1.50995 8.36754 1.33331 8.22754 1.20068ZM0.608339 7.42401L1.07053 5.89154L2.22595 6.98615L0.608339 7.42401ZM2.69845 6.77051L1.29815 5.44391L5.60206 1.36652L7.00236 2.69312L2.69845 6.77051ZM7.87778 1.86377L7.35245 2.36151L5.95208 1.03485L6.47748 0.53717C6.52386 0.493225 6.58591 0.469055 6.65214 0.469055H6.65227C6.71862 0.469055 6.78079 0.493347 6.82731 0.537415L7.87752 1.53235C7.97403 1.62378 7.97416 1.77246 7.87778 1.86377Z" fill="#878E88"/>
</g>
<defs>
<clipPath id="clip0_253_823">
<rect width="8.44444" height="8" fill="white"/>
</clipPath>
</defs>
</svg>
