<svg width="24" height="25" viewBox="0 0 24 25" fill="none" xmlns="http://www.w3.org/2000/svg">
<path opacity="0.4" d="M3.71089 12.2336H12.1889C12.5811 12.2336 12.8994 12.552 12.8994 12.9442C12.8994 13.3364 12.5811 13.6547 12.1889 13.6547H3.71089C3.31868 13.6547 3.00037 13.3364 3.00037 12.9442C3.00037 12.552 3.31868 12.2336 3.71089 12.2336Z" fill="#DCE1DE"/>
<mask id="mask0_174_200" style="mask-type:alpha" maskUnits="userSpaceOnUse" x="11" y="7" width="10" height="12">
<path fill-rule="evenodd" clip-rule="evenodd" d="M11.4786 18.3926V7.49624H20.418V18.3926H11.4786Z" fill="white"/>
</mask>
<g mask="url(#mask0_174_200)">
<path d="M12.1891 7.49596C12.3217 7.49596 12.4525 7.5329 12.5681 7.6049L20.0864 12.3427C20.2929 12.4734 20.4189 12.6999 20.4189 12.9443C20.4189 13.1887 20.2929 13.4151 20.0864 13.5459L12.5681 18.2836C12.3492 18.421 12.0726 18.4295 11.8462 18.3035C11.6188 18.1785 11.4786 17.9407 11.4786 17.6821V8.20648C11.4786 7.94785 11.6188 7.71006 11.8462 7.58501C11.9532 7.52533 12.0716 7.49596 12.1891 7.49596Z" fill="#DCE1DE"/>
</g>
</svg>
