<svg width="26" height="26" viewBox="0 0 26 26" fill="none" xmlns="http://www.w3.org/2000/svg">
<path d="M13 7.8L19.9333 11.2667V25.1333H6.06667V11.2667L13 7.8ZM13 7.8V0M0 25.1333H26M2.6 25.1333V14.7333H6.06667M23.4 25.1333V14.7333H19.9333M11.2667 25.1333V19.9333H14.7333V25.1333M13 0.866667H18.2V4.33333H13M13 16.4667C12.0427 16.4667 11.2667 15.6906 11.2667 14.7333C11.2667 13.776 12.0427 13 13 13C13.9573 13 14.7333 13.776 14.7333 14.7333C14.7333 15.6906 13.9573 16.4667 13 16.4667Z" stroke="#403845"/>
</svg>
