<svg width="26" height="26" viewBox="0 0 26 26" fill="none" xmlns="http://www.w3.org/2000/svg">
<path d="M2.6 4.33337V3.83337C2.36166 3.83337 2.15645 4.0016 2.10971 4.23531L2.6 4.33337ZM23.4 4.33337L23.8903 4.23531C23.8435 4.0016 23.6383 3.83337 23.4 3.83337V4.33337ZM25.1333 13V13.5C25.2831 13.5 25.425 13.4329 25.52 13.317C25.615 13.2012 25.653 13.0489 25.6236 12.902L25.1333 13ZM0.866667 13L0.376376 12.902C0.346999 13.0489 0.385026 13.2012 0.479996 13.317C0.574965 13.4329 0.71687 13.5 0.866667 13.5V13ZM6.06667 18.2H5.56667V18.7H6.06667V18.2ZM19.9333 18.2V18.7H20.4333V18.2H19.9333ZM0 25.6334H26V24.6334H0V25.6334ZM2.1 13V25.1334H3.1V13H2.1ZM22.9 13V25.1334H23.9V13H22.9ZM2.6 4.83337H23.4V3.83337H2.6V4.83337ZM22.9097 4.43142L24.643 13.0981L25.6236 12.902L23.8903 4.23531L22.9097 4.43142ZM25.1333 12.5H0.866667V13.5H25.1333V12.5ZM1.35696 13.0981L3.09029 4.43142L2.10971 4.23531L0.376376 12.902L1.35696 13.0981ZM1.73333 1.3667H24.2667V0.366699H1.73333V1.3667ZM5.56667 13V18.2H6.56667V13H5.56667ZM6.06667 18.7H19.9333V17.7H6.06667V18.7ZM20.4333 18.2V13H19.4333V18.2H20.4333Z" fill="#403845"/>
</svg>
