<svg width="12" height="68" viewBox="0 0 12 68" fill="none" xmlns="http://www.w3.org/2000/svg">
<path d="M6 67.864L2.818 64.682C2.18867 64.0526 1.76009 63.2508 1.58646 62.3779C1.41284 61.505 1.50195 60.6002 1.84255 59.7779C2.18315 58.9556 2.75992 58.2528 3.49994 57.7584C4.23996 57.2639 5.10999 57 6 57C6.89002 57 7.76004 57.2639 8.50006 57.7584C9.24008 58.2528 9.81686 58.9556 10.1575 59.7779C10.4981 60.6002 10.5872 61.505 10.4135 62.3779C10.2399 63.2508 9.81133 64.0526 9.182 64.682L6 67.864ZM8.475 63.975C8.96445 63.4855 9.29776 62.8618 9.43278 62.1829C9.5678 61.504 9.49846 60.8003 9.23355 60.1607C8.96863 59.5212 8.52002 58.9746 7.94446 58.59C7.3689 58.2055 6.69222 58.0002 6 58.0002C5.30778 58.0002 4.63111 58.2055 4.05554 58.59C3.47998 58.9746 3.03138 59.5212 2.76646 60.1607C2.50154 60.8003 2.43221 61.504 2.56723 62.1829C2.70225 62.8618 3.03555 63.4855 3.525 63.975L6 66.45L8.475 63.975ZM6 62.5C5.73479 62.5 5.48043 62.3946 5.2929 62.2071C5.10536 62.0195 5 61.7652 5 61.5C5 61.2347 5.10536 60.9804 5.2929 60.7929C5.48043 60.6053 5.73479 60.5 6 60.5C6.26522 60.5 6.51957 60.6053 6.70711 60.7929C6.89464 60.9804 7 61.2347 7 61.5C7 61.7652 6.89464 62.0195 6.70711 62.2071C6.51957 62.3946 6.26522 62.5 6 62.5Z" fill="#1F2421"/>
<path d="M6 1C8.76 1 11 3.24 11 6C11 8.76 8.76 11 6 11C3.24 11 1 8.76 1 6C1 3.24 3.24 1 6 1ZM6 10C8.21 10 10 8.21 10 6C10 3.79 8.21 2 6 2C3.79 2 2 3.79 2 6C2 8.21 3.79 10 6 10ZM6.5 6H8L6 8L4 6H5.5V4H6.5V6Z" fill="#1F2421"/>
<line x1="5.5" y1="54" x2="5.5" y2="13" stroke="#878E88"/>
</svg>
