<svg width="46" height="46" viewBox="0 0 46 46" fill="none" xmlns="http://www.w3.org/2000/svg">
<path d="M23.0001 44.4667C35.2792 44.4667 45.2334 34.5125 45.2334 22.2333C45.2334 9.9542 35.2792 0 23.0001 0C10.7209 0 0.766724 9.9542 0.766724 22.2333C0.766724 34.5125 10.7209 44.4667 23.0001 44.4667Z" fill="#20C462"/>
<path d="M23 46C10.3178 46 0 35.6822 0 23C0 16.872 2.38203 11.1059 6.70757 6.76507C7.3048 6.16323 8.27693 6.16323 8.8757 6.76047C9.476 7.35847 9.47753 8.32907 8.8803 8.9286C5.1313 12.6922 3.06667 17.6885 3.06667 23C3.06667 33.9917 12.0083 42.9333 23 42.9333C33.9917 42.9333 42.9333 33.9917 42.9333 23C42.9333 12.525 34.8105 3.91077 24.5333 3.12493V11.372C24.5333 12.2184 23.8464 12.9053 23 12.9053C22.1536 12.9053 21.4667 12.2184 21.4667 11.372V1.53333C21.4667 0.686933 22.1536 0 23 0C35.6822 0 46 10.3178 46 23C46 35.6822 35.6822 46 23 46Z" fill="#DCE1DE"/>
<path d="M15.3334 15.4263L25.2571 22.6046C26.2338 23.3145 26.345 24.7298 25.4909 25.5838C24.6369 26.4379 23.2224 26.3267 22.5117 25.35L15.3334 15.4263Z" fill="#DCE1DE"/>
<path d="M41.4344 37.6371C41.3961 34.6202 39.0102 32.1853 36.0685 32.1853C34.0997 32.1853 32.3839 33.2786 31.4494 34.9039C31.1266 34.7958 30.7824 34.7352 30.4243 34.7352C28.8427 34.7352 27.5225 35.8791 27.1982 37.4063C25.8535 38.0695 24.9174 39.4809 24.9174 41.1101C24.9174 43.3694 26.7137 45.2186 28.9102 45.2186H37.171C37.2178 45.2186 37.2622 45.2133 37.309 45.2117C37.355 45.2133 37.4002 45.2186 37.447 45.2186H40.7513C42.796 45.2186 44.4689 43.4975 44.4689 41.3937C44.4666 39.5307 43.1541 37.9706 41.4344 37.6371Z" fill="#DCE1DE"/>
<path d="M40.7491 45.9854H37.4448C37.3965 45.9854 37.3482 45.9823 37.3007 45.9792C37.2639 45.9823 37.2171 45.9854 37.1688 45.9854H28.9095C26.2852 45.9854 24.15 43.7981 24.15 41.1109C24.15 39.3767 25.0769 37.759 26.539 36.8919C27.0649 35.1784 28.6442 33.9686 30.4229 33.9686C30.6498 33.9686 30.8768 33.9878 31.1006 34.0269C32.2468 32.4046 34.1014 31.4187 36.0679 31.4187C39.2127 31.4187 41.8363 33.8912 42.1659 37.0399C43.9737 37.6578 45.2326 39.4005 45.2326 41.3938C45.2334 43.9261 43.2216 45.9854 40.7491 45.9854ZM37.2708 44.4459L37.4134 44.4505L40.7499 44.4528C42.3768 44.4528 43.7008 43.0805 43.7008 41.3946C43.7008 39.9249 42.6865 38.6622 41.2889 38.39L40.6763 38.2712L40.6679 37.6479C40.6341 35.0596 38.5718 32.9536 36.0686 32.9536C34.4318 32.9536 32.9537 33.8268 32.1142 35.2881L31.8006 35.8332L31.2049 35.6331C30.9504 35.5472 30.6874 35.5035 30.4237 35.5035C29.243 35.5035 28.2019 36.3721 27.9481 37.5674L27.8699 37.9315L27.5364 38.0956C26.4102 38.6514 25.6834 39.8352 25.6834 41.1124C25.6834 42.9547 27.1308 44.4536 28.9095 44.4536L37.2708 44.4459Z" fill="#DCE1DE"/>
</svg>
