<svg width="25" height="25" viewBox="0 0 25 25" fill="none" xmlns="http://www.w3.org/2000/svg">
<path d="M4.66667 14.1667C4.66667 13.8905 4.44281 13.6667 4.16667 13.6667C3.89052 13.6667 3.66667 13.8905 3.66667 14.1667H4.66667ZM21.3333 14.1667C21.3333 13.8905 21.1095 13.6667 20.8333 13.6667C20.5572 13.6667 20.3333 13.8905 20.3333 14.1667H21.3333ZM9.16667 17.5V17H8.66667V17.5H9.16667ZM15.8333 17.5H16.3333V17H15.8333V17.5ZM0 24.6667H25V23.6667H0V24.6667ZM12.2519 8.73254L0.585264 15.3992L1.0814 16.2675L12.7481 9.60079L12.2519 8.73254ZM24.4147 15.3992L12.7481 8.73254L12.2519 9.60079L23.9186 16.2675L24.4147 15.3992ZM12 0V4.16667H13V0H12ZM12 4.16667V9.16667H13V4.16667H12ZM8.33333 4.66667H12.5V3.66667H8.33333V4.66667ZM12.5 4.66667H16.6667V3.66667H12.5V4.66667ZM3.66667 14.1667V24.1667H4.66667V14.1667H3.66667ZM20.3333 14.1667V24.1667H21.3333V14.1667H20.3333ZM9.66667 24.1667V17.5H8.66667V24.1667H9.66667ZM9.16667 18H15.8333V17H9.16667V18ZM15.3333 17.5V24.1667H16.3333V17.5H15.3333Z" fill="#1F2421"/>
</svg>
